<?xml version="1.0" encoding="UTF-8"?>
<svg id="Layer_1" xmlns="http://www.w3.org/2000/svg" version="1.1" viewBox="0 0 1080 1080">
  <!-- Generator: Adobe Illustrator 30.4.0, SVG Export Plug-In . SVG Version: 2.1.4 Build 226)  -->
  <path d="M168.9,837.6h145.7c9.8,0,17.8-5.5,17.8-13.8v-98.5l199.6-101.2,171.6,203.2c5.3,6.3,13.9,10,23,10h153.4c18.1,0,48.6.7,18.1-29.9l-216.2-255.4,271-137.3h0s0,0,0,0l-31-51.6h0c-.3-.6-39.5-68.7-48-76.5,0,0,0,0,0,0-.2-.2-3.2-3.4-8.5-7.9-8.8-7.3-23.8-17.9-42.9-23.9-.8-.3-1.7-.6-2.6-.8,0,0-.2,0-.3,0-4-1.1-8.2-2-12.5-2.7,0,0,0,0,0,0-30.1-5.8-65-8.8-104.9-8.8H168.9c-9.8,0-17.8,6.8-17.8,15.1v560.7c0,8.4,8,19.4,17.8,19.4ZM332.5,382c0-8.4,8-15.1,17.8-15.1h317c32.9-.5,47.7,8.4,47.7,8.4l-382.5,186.8v-180.1Z"/>
  <path d="M-444.3,1434.1"/>
  <path d="M656.7,885.2"/>
</svg>
